<mxfile host="app.diagrams.net" modified="2023-11-05T15:21:10.660Z" agent="Mozilla/5.0 (X11; Linux x86_64) AppleWebKit/537.36 (KHTML, like Gecko) Chrome/118.0.0.0 Safari/537.36" etag="feSAhC0ob0hB_IidjfKt" version="22.0.8" type="device">
  <diagram id="R2lEEEUBdFMjLlhIrx00" name="Page-1">
    <mxGraphModel dx="2321" dy="954" grid="1" gridSize="10" guides="1" tooltips="1" connect="1" arrows="1" fold="1" page="1" pageScale="1" pageWidth="850" pageHeight="1100" math="0" shadow="0" extFonts="Permanent Marker^https://fonts.googleapis.com/css?family=Permanent+Marker">
      <root>
        <mxCell id="0" />
        <mxCell id="1" parent="0" />
        <mxCell id="3PcHGjOzoDoNVJ23eMHd-9" value="TEAM" style="whiteSpace=wrap;html=1;align=center;fillColor=#f8cecc;strokeColor=#b85450;" parent="1" vertex="1">
          <mxGeometry x="80" y="600" width="100" height="40" as="geometry" />
        </mxCell>
        <mxCell id="3PcHGjOzoDoNVJ23eMHd-10" value="PLAYER" style="whiteSpace=wrap;html=1;align=center;fillColor=#f8cecc;strokeColor=#b85450;" parent="1" vertex="1">
          <mxGeometry x="50" y="340" width="90" height="40" as="geometry" />
        </mxCell>
        <mxCell id="3PcHGjOzoDoNVJ23eMHd-11" value="STADIUM" style="whiteSpace=wrap;html=1;align=center;fillColor=#f8cecc;strokeColor=#b85450;" parent="1" vertex="1">
          <mxGeometry x="770" y="570" width="100" height="40" as="geometry" />
        </mxCell>
        <mxCell id="3PcHGjOzoDoNVJ23eMHd-12" value="TEAM MANAGER" style="whiteSpace=wrap;html=1;align=center;fillColor=#f8cecc;strokeColor=#b85450;" parent="1" vertex="1">
          <mxGeometry x="-10" y="920" width="100" height="40" as="geometry" />
        </mxCell>
        <mxCell id="3PcHGjOzoDoNVJ23eMHd-13" value="SPONSOR" style="whiteSpace=wrap;html=1;align=center;fillColor=#f8cecc;strokeColor=#b85450;" parent="1" vertex="1">
          <mxGeometry x="560" y="230" width="100" height="40" as="geometry" />
        </mxCell>
        <mxCell id="3PcHGjOzoDoNVJ23eMHd-14" value="STAFF" style="whiteSpace=wrap;html=1;align=center;fillColor=#f8cecc;strokeColor=#b85450;" parent="1" vertex="1">
          <mxGeometry x="710" y="830" width="100" height="40" as="geometry" />
        </mxCell>
        <mxCell id="3PcHGjOzoDoNVJ23eMHd-15" value="MATCH" style="shape=ext;margin=3;double=1;whiteSpace=wrap;html=1;align=center;fillColor=#ffe6cc;strokeColor=#d79b00;" parent="1" vertex="1">
          <mxGeometry x="410" y="1040" width="100" height="40" as="geometry" />
        </mxCell>
        <mxCell id="3PcHGjOzoDoNVJ23eMHd-16" value="STATS" style="shape=ext;margin=3;double=1;whiteSpace=wrap;html=1;align=center;fillColor=#ffe6cc;strokeColor=#d79b00;" parent="1" vertex="1">
          <mxGeometry x="1050" y="110" width="100" height="40" as="geometry" />
        </mxCell>
        <mxCell id="3PcHGjOzoDoNVJ23eMHd-17" value="PLAYING FOR" style="shape=rhombus;perimeter=rhombusPerimeter;whiteSpace=wrap;html=1;align=center;fillColor=#6a00ff;fontColor=#ffffff;strokeColor=#3700CC;" parent="1" vertex="1">
          <mxGeometry x="-210" y="420" width="130" height="60" as="geometry" />
        </mxCell>
        <mxCell id="3PcHGjOzoDoNVJ23eMHd-20" value="WORKING" style="shape=rhombus;double=1;perimeter=rhombusPerimeter;whiteSpace=wrap;html=1;align=center;fillColor=#bac8d3;strokeColor=#23445d;gradientDirection=radial;" parent="1" vertex="1">
          <mxGeometry x="530" y="590" width="120" height="60" as="geometry" />
        </mxCell>
        <mxCell id="3PcHGjOzoDoNVJ23eMHd-24" value="MANAGED BY" style="shape=rhombus;perimeter=rhombusPerimeter;whiteSpace=wrap;html=1;align=center;fillColor=#6a00ff;fontColor=#ffffff;strokeColor=#3700CC;" parent="1" vertex="1">
          <mxGeometry x="70" y="810" width="120" height="60" as="geometry" />
        </mxCell>
        <mxCell id="3PcHGjOzoDoNVJ23eMHd-27" value="SCHEDULED BETWEEN" style="shape=rhombus;double=1;perimeter=rhombusPerimeter;whiteSpace=wrap;html=1;align=center;fillColor=#bac8d3;strokeColor=#23445d;gradientDirection=radial;" parent="1" vertex="1">
          <mxGeometry x="230" y="770" width="120" height="60" as="geometry" />
        </mxCell>
        <mxCell id="3PcHGjOzoDoNVJ23eMHd-30" value="SPONSORING" style="shape=rhombus;perimeter=rhombusPerimeter;whiteSpace=wrap;html=1;align=center;fillColor=#6a00ff;fontColor=#ffffff;strokeColor=#3700CC;" parent="1" vertex="1">
          <mxGeometry x="320" y="370" width="120" height="60" as="geometry" />
        </mxCell>
        <mxCell id="3PcHGjOzoDoNVJ23eMHd-33" value="ASSOCIATED WITH" style="shape=rhombus;double=1;perimeter=rhombusPerimeter;whiteSpace=wrap;html=1;align=center;fillColor=#bac8d3;strokeColor=#23445d;gradientDirection=radial;" parent="1" vertex="1">
          <mxGeometry x="750" y="100" width="100" height="60" as="geometry" />
        </mxCell>
        <mxCell id="3PcHGjOzoDoNVJ23eMHd-40" value="LEADING" style="shape=rhombus;perimeter=rhombusPerimeter;whiteSpace=wrap;html=1;align=center;fillColor=#6a00ff;fontColor=#ffffff;strokeColor=#3700CC;" parent="1" vertex="1">
          <mxGeometry x="35" width="120" height="60" as="geometry" />
        </mxCell>
        <mxCell id="3PcHGjOzoDoNVJ23eMHd-46" value="PLAYER NAME" style="ellipse;whiteSpace=wrap;html=1;align=center;fillColor=#fff2cc;strokeColor=#d6b656;" parent="1" vertex="1">
          <mxGeometry x="45" y="180" width="100" height="40" as="geometry" />
        </mxCell>
        <mxCell id="3PcHGjOzoDoNVJ23eMHd-50" value="NATIONALITY" style="ellipse;whiteSpace=wrap;html=1;align=center;fillColor=#fff2cc;strokeColor=#d6b656;" parent="1" vertex="1">
          <mxGeometry x="-110" y="210" width="100" height="40" as="geometry" />
        </mxCell>
        <mxCell id="3PcHGjOzoDoNVJ23eMHd-52" value="PLAYER ROLE" style="ellipse;shape=doubleEllipse;margin=3;whiteSpace=wrap;html=1;align=center;fillColor=#dae8fc;strokeColor=#6c8ebf;" parent="1" vertex="1">
          <mxGeometry x="310" y="210" width="100" height="40" as="geometry" />
        </mxCell>
        <mxCell id="3PcHGjOzoDoNVJ23eMHd-53" value="PLAYER ID" style="ellipse;whiteSpace=wrap;html=1;align=center;fontStyle=4;fillColor=#e1d5e7;strokeColor=#9673a6;" parent="1" vertex="1">
          <mxGeometry x="-110" y="270" width="100" height="40" as="geometry" />
        </mxCell>
        <mxCell id="3PcHGjOzoDoNVJ23eMHd-55" value="DATE OF BIRTH" style="ellipse;whiteSpace=wrap;html=1;align=center;fillColor=#d5e8d4;strokeColor=#82b366;" parent="1" vertex="1">
          <mxGeometry x="210" y="150" width="110" height="40" as="geometry" />
        </mxCell>
        <mxCell id="3PcHGjOzoDoNVJ23eMHd-59" value="YEAR" style="ellipse;whiteSpace=wrap;html=1;align=center;fillColor=#fff2cc;strokeColor=#d6b656;" parent="1" vertex="1">
          <mxGeometry x="260" y="20" width="100" height="40" as="geometry" />
        </mxCell>
        <mxCell id="3PcHGjOzoDoNVJ23eMHd-60" value="MONTH" style="ellipse;whiteSpace=wrap;html=1;align=center;fillColor=#fff2cc;strokeColor=#d6b656;" parent="1" vertex="1">
          <mxGeometry x="375" y="80" width="100" height="40" as="geometry" />
        </mxCell>
        <mxCell id="3PcHGjOzoDoNVJ23eMHd-61" value="DAY" style="ellipse;whiteSpace=wrap;html=1;align=center;fillColor=#fff2cc;strokeColor=#d6b656;" parent="1" vertex="1">
          <mxGeometry x="360" y="10" width="100" height="40" as="geometry" />
        </mxCell>
        <mxCell id="3PcHGjOzoDoNVJ23eMHd-65" value="AGE" style="ellipse;whiteSpace=wrap;html=1;align=center;dashed=1;fillColor=#b0e3e6;strokeColor=#0e8088;" parent="1" vertex="1">
          <mxGeometry x="-110" y="140" width="100" height="40" as="geometry" />
        </mxCell>
        <mxCell id="3PcHGjOzoDoNVJ23eMHd-67" value="BASE SALARY" style="ellipse;whiteSpace=wrap;html=1;align=center;fillColor=#fff2cc;strokeColor=#d6b656;" parent="1" vertex="1">
          <mxGeometry x="330" y="160" width="100" height="40" as="geometry" />
        </mxCell>
        <mxCell id="3PcHGjOzoDoNVJ23eMHd-70" value="TEAM ID" style="ellipse;whiteSpace=wrap;html=1;align=center;fontStyle=4;fillColor=#e1d5e7;strokeColor=#9673a6;" parent="1" vertex="1">
          <mxGeometry x="-240" y="640" width="100" height="40" as="geometry" />
        </mxCell>
        <mxCell id="3PcHGjOzoDoNVJ23eMHd-73" value="NAME" style="ellipse;whiteSpace=wrap;html=1;align=center;fillColor=#fff2cc;strokeColor=#d6b656;" parent="1" vertex="1">
          <mxGeometry x="-180" y="710" width="100" height="40" as="geometry" />
        </mxCell>
        <mxCell id="3PcHGjOzoDoNVJ23eMHd-75" value="OWNER" style="ellipse;shape=doubleEllipse;margin=3;whiteSpace=wrap;html=1;align=center;fillColor=#dae8fc;strokeColor=#6c8ebf;" parent="1" vertex="1">
          <mxGeometry x="-90" y="760" width="100" height="40" as="geometry" />
        </mxCell>
        <mxCell id="3PcHGjOzoDoNVJ23eMHd-77" value="REGION" style="ellipse;whiteSpace=wrap;html=1;align=center;fillColor=#fff2cc;strokeColor=#d6b656;" parent="1" vertex="1">
          <mxGeometry x="20" y="720" width="100" height="40" as="geometry" />
        </mxCell>
        <mxCell id="3PcHGjOzoDoNVJ23eMHd-79" value="STADIUM ID" style="ellipse;whiteSpace=wrap;html=1;align=center;fontStyle=4;fillColor=#e1d5e7;strokeColor=#9673a6;" parent="1" vertex="1">
          <mxGeometry x="1210" y="500" width="100" height="40" as="geometry" />
        </mxCell>
        <mxCell id="3PcHGjOzoDoNVJ23eMHd-81" value="STADIUM NAME" style="ellipse;whiteSpace=wrap;html=1;align=center;fillColor=#fff2cc;strokeColor=#d6b656;" parent="1" vertex="1">
          <mxGeometry x="820" y="410" width="100" height="40" as="geometry" />
        </mxCell>
        <mxCell id="3PcHGjOzoDoNVJ23eMHd-83" value="LOCALITY" style="ellipse;whiteSpace=wrap;html=1;align=center;fillColor=#fff2cc;strokeColor=#d6b656;" parent="1" vertex="1">
          <mxGeometry x="990" y="420" width="100" height="40" as="geometry" />
        </mxCell>
        <mxCell id="3PcHGjOzoDoNVJ23eMHd-85" value="REGION/STATE" style="ellipse;whiteSpace=wrap;html=1;align=center;fillColor=#fff2cc;strokeColor=#d6b656;" parent="1" vertex="1">
          <mxGeometry x="1120" y="330" width="100" height="40" as="geometry" />
        </mxCell>
        <mxCell id="3PcHGjOzoDoNVJ23eMHd-86" value="CITY" style="ellipse;whiteSpace=wrap;html=1;align=center;fillColor=#fff2cc;strokeColor=#d6b656;" parent="1" vertex="1">
          <mxGeometry x="1275" y="370" width="100" height="40" as="geometry" />
        </mxCell>
        <mxCell id="3PcHGjOzoDoNVJ23eMHd-89" value="CAPACITY" style="ellipse;whiteSpace=wrap;html=1;align=center;fillColor=#fff2cc;strokeColor=#d6b656;" parent="1" vertex="1">
          <mxGeometry x="990" y="480" width="100" height="40" as="geometry" />
        </mxCell>
        <mxCell id="3PcHGjOzoDoNVJ23eMHd-93" value="MANAGER ID" style="ellipse;whiteSpace=wrap;html=1;align=center;fontStyle=4;fillColor=#e1d5e7;strokeColor=#9673a6;" parent="1" vertex="1">
          <mxGeometry x="-110" y="1010" width="100" height="40" as="geometry" />
        </mxCell>
        <mxCell id="3PcHGjOzoDoNVJ23eMHd-95" value="MANAGER NAME" style="ellipse;whiteSpace=wrap;html=1;align=center;fillColor=#fff2cc;strokeColor=#d6b656;" parent="1" vertex="1">
          <mxGeometry x="20" y="1020" width="100" height="40" as="geometry" />
        </mxCell>
        <mxCell id="3PcHGjOzoDoNVJ23eMHd-98" value="EMAIL" style="ellipse;whiteSpace=wrap;html=1;align=center;fillColor=#fff2cc;strokeColor=#d6b656;" parent="1" vertex="1">
          <mxGeometry x="130" y="960" width="100" height="40" as="geometry" />
        </mxCell>
        <mxCell id="3PcHGjOzoDoNVJ23eMHd-101" value="SPONSOR ID" style="ellipse;whiteSpace=wrap;html=1;align=center;fontStyle=4;fillColor=#e1d5e7;strokeColor=#9673a6;" parent="1" vertex="1">
          <mxGeometry x="650" y="190" width="100" height="40" as="geometry" />
        </mxCell>
        <mxCell id="3PcHGjOzoDoNVJ23eMHd-103" value="NAME" style="ellipse;whiteSpace=wrap;html=1;align=center;fillColor=#fff2cc;strokeColor=#d6b656;" parent="1" vertex="1">
          <mxGeometry x="800" y="180" width="100" height="40" as="geometry" />
        </mxCell>
        <mxCell id="3PcHGjOzoDoNVJ23eMHd-105" value="EMAIL" style="ellipse;whiteSpace=wrap;html=1;align=center;fillColor=#fff2cc;strokeColor=#d6b656;" parent="1" vertex="1">
          <mxGeometry x="800" y="290" width="100" height="40" as="geometry" />
        </mxCell>
        <mxCell id="3PcHGjOzoDoNVJ23eMHd-107" value="SPONSORSHIP CONTRACTS" style="ellipse;whiteSpace=wrap;html=1;align=center;fillColor=#d5e8d4;strokeColor=#82b366;" parent="1" vertex="1">
          <mxGeometry x="870" y="250" width="100" height="40" as="geometry" />
        </mxCell>
        <mxCell id="3PcHGjOzoDoNVJ23eMHd-109" value="FINANCIAL TERMS" style="ellipse;shape=doubleEllipse;margin=3;whiteSpace=wrap;html=1;align=center;fillColor=#dae8fc;strokeColor=#6c8ebf;" parent="1" vertex="1">
          <mxGeometry x="980" y="200" width="100" height="40" as="geometry" />
        </mxCell>
        <mxCell id="3PcHGjOzoDoNVJ23eMHd-110" value="TERMINATION CLAUSE" style="ellipse;shape=doubleEllipse;margin=3;whiteSpace=wrap;html=1;align=center;fillColor=#dae8fc;strokeColor=#6c8ebf;" parent="1" vertex="1">
          <mxGeometry x="980" y="280" width="100" height="40" as="geometry" />
        </mxCell>
        <mxCell id="3PcHGjOzoDoNVJ23eMHd-114" value="ADDRESS" style="ellipse;whiteSpace=wrap;html=1;align=center;fillColor=#d5e8d4;strokeColor=#82b366;" parent="1" vertex="1">
          <mxGeometry x="570" y="70" width="100" height="40" as="geometry" />
        </mxCell>
        <mxCell id="3PcHGjOzoDoNVJ23eMHd-116" value="REGION/STATE" style="ellipse;whiteSpace=wrap;html=1;align=center;fillColor=#fff2cc;strokeColor=#d6b656;" parent="1" vertex="1">
          <mxGeometry x="630" y="10" width="100" height="40" as="geometry" />
        </mxCell>
        <mxCell id="3PcHGjOzoDoNVJ23eMHd-117" value="CITY" style="ellipse;whiteSpace=wrap;html=1;align=center;fillColor=#fff2cc;strokeColor=#d6b656;" parent="1" vertex="1">
          <mxGeometry x="780" y="20" width="100" height="40" as="geometry" />
        </mxCell>
        <mxCell id="3PcHGjOzoDoNVJ23eMHd-120" value="NAME" style="ellipse;whiteSpace=wrap;html=1;align=center;fillColor=#fff2cc;strokeColor=#d6b656;" parent="1" vertex="1">
          <mxGeometry x="850" y="790" width="100" height="40" as="geometry" />
        </mxCell>
        <mxCell id="3PcHGjOzoDoNVJ23eMHd-122" value="STAFF ID" style="ellipse;whiteSpace=wrap;html=1;align=center;fontStyle=4;fillColor=#e1d5e7;strokeColor=#9673a6;" parent="1" vertex="1">
          <mxGeometry x="890" y="850" width="100" height="40" as="geometry" />
        </mxCell>
        <mxCell id="3PcHGjOzoDoNVJ23eMHd-124" value="AGE" style="ellipse;whiteSpace=wrap;html=1;align=center;fillColor=#fff2cc;strokeColor=#d6b656;" parent="1" vertex="1">
          <mxGeometry x="820" y="940" width="100" height="40" as="geometry" />
        </mxCell>
        <mxCell id="3PcHGjOzoDoNVJ23eMHd-126" value="DEPARTMENT" style="ellipse;whiteSpace=wrap;html=1;align=center;fillColor=#fff2cc;strokeColor=#d6b656;" parent="1" vertex="1">
          <mxGeometry x="660" y="980" width="100" height="40" as="geometry" />
        </mxCell>
        <mxCell id="3PcHGjOzoDoNVJ23eMHd-128" value="CONTACT NUMBER" style="ellipse;whiteSpace=wrap;html=1;align=center;fillColor=#fff2cc;strokeColor=#d6b656;" parent="1" vertex="1">
          <mxGeometry x="570" y="920" width="100" height="40" as="geometry" />
        </mxCell>
        <mxCell id="3PcHGjOzoDoNVJ23eMHd-130" value="MATCH DETAILS" style="ellipse;whiteSpace=wrap;html=1;align=center;fillColor=#fff2cc;strokeColor=#d6b656;" parent="1" vertex="1">
          <mxGeometry x="215" y="1180" width="100" height="40" as="geometry" />
        </mxCell>
        <mxCell id="3PcHGjOzoDoNVJ23eMHd-131" value="TOSS WINNER" style="ellipse;whiteSpace=wrap;html=1;align=center;fillColor=#fff2cc;strokeColor=#d6b656;" parent="1" vertex="1">
          <mxGeometry x="30" y="1280" width="100" height="40" as="geometry" />
        </mxCell>
        <mxCell id="3PcHGjOzoDoNVJ23eMHd-132" value="TOTAL NUMBER OF STUMPINGS" style="ellipse;whiteSpace=wrap;html=1;align=center;fillColor=#fff2cc;strokeColor=#d6b656;" parent="1" vertex="1">
          <mxGeometry x="110" y="1350" width="110" height="50" as="geometry" />
        </mxCell>
        <mxCell id="3PcHGjOzoDoNVJ23eMHd-137" value="MATCH TYPE" style="ellipse;whiteSpace=wrap;html=1;align=center;fillColor=#fff2cc;strokeColor=#d6b656;" parent="1" vertex="1">
          <mxGeometry x="380" y="1230" width="100" height="40" as="geometry" />
        </mxCell>
        <mxCell id="3PcHGjOzoDoNVJ23eMHd-139" value="DATE" style="ellipse;whiteSpace=wrap;html=1;align=center;fillColor=#d5e8d4;strokeColor=#82b366;" parent="1" vertex="1">
          <mxGeometry x="500" y="1240" width="100" height="40" as="geometry" />
        </mxCell>
        <mxCell id="3PcHGjOzoDoNVJ23eMHd-141" value="DAY" style="ellipse;whiteSpace=wrap;html=1;align=center;fillColor=#fff2cc;strokeColor=#d6b656;" parent="1" vertex="1">
          <mxGeometry x="375" y="1360" width="100" height="40" as="geometry" />
        </mxCell>
        <mxCell id="3PcHGjOzoDoNVJ23eMHd-142" value="MONTH" style="ellipse;whiteSpace=wrap;html=1;align=center;fillColor=#fff2cc;strokeColor=#d6b656;" parent="1" vertex="1">
          <mxGeometry x="480" y="1390" width="100" height="40" as="geometry" />
        </mxCell>
        <mxCell id="3PcHGjOzoDoNVJ23eMHd-143" value="YEAR" style="ellipse;whiteSpace=wrap;html=1;align=center;fillColor=#fff2cc;strokeColor=#d6b656;" parent="1" vertex="1">
          <mxGeometry x="570" y="1360" width="100" height="40" as="geometry" />
        </mxCell>
        <mxCell id="3PcHGjOzoDoNVJ23eMHd-147" value="TIME" style="ellipse;whiteSpace=wrap;html=1;align=center;fillColor=#d5e8d4;strokeColor=#82b366;" parent="1" vertex="1">
          <mxGeometry x="610" y="1160" width="100" height="40" as="geometry" />
        </mxCell>
        <mxCell id="3PcHGjOzoDoNVJ23eMHd-148" value="HOURS" style="ellipse;whiteSpace=wrap;html=1;align=center;fillColor=#fff2cc;strokeColor=#d6b656;" parent="1" vertex="1">
          <mxGeometry x="870" y="1160" width="100" height="40" as="geometry" />
        </mxCell>
        <mxCell id="3PcHGjOzoDoNVJ23eMHd-149" value="MINUTES" style="ellipse;whiteSpace=wrap;html=1;align=center;fillColor=#fff2cc;strokeColor=#d6b656;" parent="1" vertex="1">
          <mxGeometry x="840" y="1220" width="100" height="40" as="geometry" />
        </mxCell>
        <mxCell id="3PcHGjOzoDoNVJ23eMHd-150" value="SECONDS" style="ellipse;whiteSpace=wrap;html=1;align=center;fillColor=#fff2cc;strokeColor=#d6b656;" parent="1" vertex="1">
          <mxGeometry x="650" y="1260" width="100" height="40" as="geometry" />
        </mxCell>
        <mxCell id="3PcHGjOzoDoNVJ23eMHd-156" value="TOTAL RUNS" style="ellipse;whiteSpace=wrap;html=1;align=center;fillColor=#fff2cc;strokeColor=#d6b656;" parent="1" vertex="1">
          <mxGeometry x="1190" y="40" width="100" height="40" as="geometry" />
        </mxCell>
        <mxCell id="3PcHGjOzoDoNVJ23eMHd-158" value="TOTAL WICKETS" style="ellipse;whiteSpace=wrap;html=1;align=center;fillColor=#fff2cc;strokeColor=#d6b656;" parent="1" vertex="1">
          <mxGeometry x="1220" y="100" width="100" height="40" as="geometry" />
        </mxCell>
        <mxCell id="3PcHGjOzoDoNVJ23eMHd-160" value="TOTAL MATCHES" style="ellipse;whiteSpace=wrap;html=1;align=center;fillColor=#fff2cc;strokeColor=#d6b656;" parent="1" vertex="1">
          <mxGeometry x="1240" y="160" width="100" height="40" as="geometry" />
        </mxCell>
        <mxCell id="3PcHGjOzoDoNVJ23eMHd-162" value="ACHIEVEMENTS" style="ellipse;shape=doubleEllipse;margin=3;whiteSpace=wrap;html=1;align=center;fillColor=#dae8fc;strokeColor=#6c8ebf;" parent="1" vertex="1">
          <mxGeometry x="1010" y="10" width="100" height="40" as="geometry" />
        </mxCell>
        <mxCell id="3PcHGjOzoDoNVJ23eMHd-164" value="&lt;u&gt;SPONSOR IDS&lt;br&gt;&lt;/u&gt;" style="ellipse;shape=doubleEllipse;margin=3;whiteSpace=wrap;html=1;align=center;fillColor=#dae8fc;strokeColor=#6c8ebf;" parent="1" vertex="1">
          <mxGeometry x="-230" y="800" width="100" height="40" as="geometry" />
        </mxCell>
        <mxCell id="3PcHGjOzoDoNVJ23eMHd-166" value="&lt;u&gt;MANAGER IDS&lt;br&gt;&lt;/u&gt;" style="ellipse;shape=doubleEllipse;margin=3;whiteSpace=wrap;html=1;align=center;fillColor=#dae8fc;strokeColor=#6c8ebf;" parent="1" vertex="1">
          <mxGeometry x="-290" y="710" width="100" height="40" as="geometry" />
        </mxCell>
        <mxCell id="3PcHGjOzoDoNVJ23eMHd-168" value="TEAM ID" style="ellipse;whiteSpace=wrap;html=1;align=center;fontStyle=4;fillColor=#e1d5e7;strokeColor=#9673a6;" parent="1" vertex="1">
          <mxGeometry x="90" y="400" width="100" height="40" as="geometry" />
        </mxCell>
        <mxCell id="3PcHGjOzoDoNVJ23eMHd-170" value="HOME TEAM ID" style="ellipse;whiteSpace=wrap;html=1;align=center;fontStyle=4;fillColor=#e1d5e7;strokeColor=#9673a6;" parent="1" vertex="1">
          <mxGeometry x="1020" y="550" width="100" height="40" as="geometry" />
        </mxCell>
        <mxCell id="3PcHGjOzoDoNVJ23eMHd-172" value="TEAM ID" style="ellipse;whiteSpace=wrap;html=1;align=center;fontStyle=4;fillColor=#e1d5e7;strokeColor=#9673a6;" parent="1" vertex="1">
          <mxGeometry x="-160" y="880" width="100" height="40" as="geometry" />
        </mxCell>
        <mxCell id="3PcHGjOzoDoNVJ23eMHd-174" value="STADIUM ID" style="ellipse;whiteSpace=wrap;html=1;align=center;fontStyle=4;fillColor=#e1d5e7;strokeColor=#9673a6;" parent="1" vertex="1">
          <mxGeometry x="930" y="910" width="100" height="40" as="geometry" />
        </mxCell>
        <mxCell id="3PcHGjOzoDoNVJ23eMHd-176" value="&lt;span style=&quot;border-bottom: 1px dotted&quot;&gt;TEAM ID&lt;br&gt;&lt;/span&gt;" style="ellipse;whiteSpace=wrap;html=1;align=center;fillColor=#e1d5e7;strokeColor=#9673a6;" parent="1" vertex="1">
          <mxGeometry x="290" y="1280" width="100" height="40" as="geometry" />
        </mxCell>
        <mxCell id="3PcHGjOzoDoNVJ23eMHd-179" value="&lt;span style=&quot;border-bottom: 1px dotted&quot;&gt;STADIUM ID&lt;br&gt;&lt;/span&gt;" style="ellipse;whiteSpace=wrap;html=1;align=center;fillColor=#e1d5e7;strokeColor=#9673a6;" parent="1" vertex="1">
          <mxGeometry x="90" y="1120" width="100" height="40" as="geometry" />
        </mxCell>
        <mxCell id="3PcHGjOzoDoNVJ23eMHd-181" value="&lt;span style=&quot;border-bottom: 1px dotted&quot;&gt;STAFF ID&lt;br&gt;&lt;/span&gt;" style="ellipse;whiteSpace=wrap;html=1;align=center;fillColor=#e1d5e7;strokeColor=#9673a6;" parent="1" vertex="1">
          <mxGeometry x="650" y="1080" width="100" height="40" as="geometry" />
        </mxCell>
        <mxCell id="3PcHGjOzoDoNVJ23eMHd-183" value="&lt;span style=&quot;border-bottom: 1px dotted&quot;&gt;PLAYER ID&lt;br&gt;&lt;/span&gt;" style="ellipse;whiteSpace=wrap;html=1;align=center;fillColor=#e1d5e7;strokeColor=#9673a6;" parent="1" vertex="1">
          <mxGeometry x="1210" y="230" width="100" height="40" as="geometry" />
        </mxCell>
        <mxCell id="3PcHGjOzoDoNVJ23eMHd-185" value="&lt;span style=&quot;border-bottom: 1px dotted&quot;&gt;TEAM ID&lt;br&gt;&lt;/span&gt;" style="ellipse;whiteSpace=wrap;html=1;align=center;fillColor=#e1d5e7;strokeColor=#9673a6;" parent="1" vertex="1">
          <mxGeometry x="930" y="60" width="100" height="40" as="geometry" />
        </mxCell>
        <mxCell id="3PcHGjOzoDoNVJ23eMHd-194" value="ASSOCIATED" style="shape=rhombus;perimeter=rhombusPerimeter;whiteSpace=wrap;html=1;align=center;fillColor=#6a00ff;fontColor=#ffffff;strokeColor=#3700CC;" parent="1" vertex="1">
          <mxGeometry x="390" y="470" width="120" height="60" as="geometry" />
        </mxCell>
        <mxCell id="3PcHGjOzoDoNVJ23eMHd-208" value="" style="endArrow=none;html=1;rounded=0;entryX=0.25;entryY=1;entryDx=0;entryDy=0;exitX=0.5;exitY=0;exitDx=0;exitDy=0;" parent="1" source="3PcHGjOzoDoNVJ23eMHd-176" target="3PcHGjOzoDoNVJ23eMHd-15" edge="1">
          <mxGeometry relative="1" as="geometry">
            <mxPoint x="320" y="1200" as="sourcePoint" />
            <mxPoint x="480" y="1200" as="targetPoint" />
          </mxGeometry>
        </mxCell>
        <mxCell id="3PcHGjOzoDoNVJ23eMHd-209" value="" style="endArrow=none;html=1;rounded=0;entryX=0.5;entryY=1;entryDx=0;entryDy=0;exitX=0.5;exitY=0;exitDx=0;exitDy=0;" parent="1" source="3PcHGjOzoDoNVJ23eMHd-137" target="3PcHGjOzoDoNVJ23eMHd-15" edge="1">
          <mxGeometry relative="1" as="geometry">
            <mxPoint x="345" y="1170" as="sourcePoint" />
            <mxPoint x="505" y="1170" as="targetPoint" />
            <Array as="points" />
          </mxGeometry>
        </mxCell>
        <mxCell id="3PcHGjOzoDoNVJ23eMHd-210" value="" style="endArrow=none;html=1;rounded=0;entryX=0.5;entryY=0;entryDx=0;entryDy=0;exitX=1;exitY=1;exitDx=0;exitDy=0;" parent="1" source="3PcHGjOzoDoNVJ23eMHd-15" target="3PcHGjOzoDoNVJ23eMHd-147" edge="1">
          <mxGeometry relative="1" as="geometry">
            <mxPoint x="540" y="1130" as="sourcePoint" />
            <mxPoint x="700" y="1130" as="targetPoint" />
          </mxGeometry>
        </mxCell>
        <mxCell id="3PcHGjOzoDoNVJ23eMHd-211" value="" style="endArrow=none;html=1;rounded=0;entryX=0.5;entryY=0;entryDx=0;entryDy=0;exitX=0.75;exitY=1;exitDx=0;exitDy=0;" parent="1" source="3PcHGjOzoDoNVJ23eMHd-15" target="3PcHGjOzoDoNVJ23eMHd-139" edge="1">
          <mxGeometry relative="1" as="geometry">
            <mxPoint x="440" y="1179" as="sourcePoint" />
            <mxPoint x="600" y="1179" as="targetPoint" />
          </mxGeometry>
        </mxCell>
        <mxCell id="3PcHGjOzoDoNVJ23eMHd-213" value="" style="endArrow=none;html=1;rounded=0;entryX=0.22;entryY=0.95;entryDx=0;entryDy=0;entryPerimeter=0;exitX=0.5;exitY=0;exitDx=0;exitDy=0;" parent="1" source="3PcHGjOzoDoNVJ23eMHd-141" target="3PcHGjOzoDoNVJ23eMHd-139" edge="1">
          <mxGeometry relative="1" as="geometry">
            <mxPoint x="375" y="1339.5" as="sourcePoint" />
            <mxPoint x="535" y="1339.5" as="targetPoint" />
          </mxGeometry>
        </mxCell>
        <mxCell id="3PcHGjOzoDoNVJ23eMHd-214" value="" style="endArrow=none;html=1;rounded=0;entryX=0.5;entryY=1;entryDx=0;entryDy=0;exitX=0.5;exitY=0;exitDx=0;exitDy=0;" parent="1" source="3PcHGjOzoDoNVJ23eMHd-142" target="3PcHGjOzoDoNVJ23eMHd-139" edge="1">
          <mxGeometry relative="1" as="geometry">
            <mxPoint x="500" y="1350" as="sourcePoint" />
            <mxPoint x="660" y="1350" as="targetPoint" />
          </mxGeometry>
        </mxCell>
        <mxCell id="3PcHGjOzoDoNVJ23eMHd-215" value="" style="endArrow=none;html=1;rounded=0;entryX=0.5;entryY=0;entryDx=0;entryDy=0;" parent="1" target="3PcHGjOzoDoNVJ23eMHd-143" edge="1">
          <mxGeometry relative="1" as="geometry">
            <mxPoint x="580" y="1270" as="sourcePoint" />
            <mxPoint x="670" y="1330" as="targetPoint" />
          </mxGeometry>
        </mxCell>
        <mxCell id="3PcHGjOzoDoNVJ23eMHd-216" value="" style="endArrow=none;html=1;rounded=0;exitX=0.5;exitY=1;exitDx=0;exitDy=0;entryX=0;entryY=0.5;entryDx=0;entryDy=0;" parent="1" source="3PcHGjOzoDoNVJ23eMHd-147" target="3PcHGjOzoDoNVJ23eMHd-150" edge="1">
          <mxGeometry relative="1" as="geometry">
            <mxPoint x="720" y="1339.5" as="sourcePoint" />
            <mxPoint x="880" y="1339.5" as="targetPoint" />
          </mxGeometry>
        </mxCell>
        <mxCell id="3PcHGjOzoDoNVJ23eMHd-217" value="" style="endArrow=none;html=1;rounded=0;entryX=0;entryY=0.5;entryDx=0;entryDy=0;exitX=1;exitY=1;exitDx=0;exitDy=0;" parent="1" source="3PcHGjOzoDoNVJ23eMHd-147" target="3PcHGjOzoDoNVJ23eMHd-149" edge="1">
          <mxGeometry relative="1" as="geometry">
            <mxPoint x="700" y="1200" as="sourcePoint" />
            <mxPoint x="860" y="1200" as="targetPoint" />
          </mxGeometry>
        </mxCell>
        <mxCell id="3PcHGjOzoDoNVJ23eMHd-218" value="" style="endArrow=none;html=1;rounded=0;" parent="1" edge="1">
          <mxGeometry relative="1" as="geometry">
            <mxPoint x="710" y="1180" as="sourcePoint" />
            <mxPoint x="870" y="1180" as="targetPoint" />
          </mxGeometry>
        </mxCell>
        <mxCell id="3PcHGjOzoDoNVJ23eMHd-220" value="" style="endArrow=none;html=1;rounded=0;entryX=0;entryY=0.5;entryDx=0;entryDy=0;exitX=1;exitY=0.25;exitDx=0;exitDy=0;" parent="1" source="3PcHGjOzoDoNVJ23eMHd-15" target="3PcHGjOzoDoNVJ23eMHd-181" edge="1">
          <mxGeometry relative="1" as="geometry">
            <mxPoint x="540" y="1050" as="sourcePoint" />
            <mxPoint x="700" y="1050" as="targetPoint" />
          </mxGeometry>
        </mxCell>
        <mxCell id="3PcHGjOzoDoNVJ23eMHd-221" value="" style="endArrow=none;html=1;rounded=0;entryX=0;entryY=1;entryDx=0;entryDy=0;exitX=1;exitY=0;exitDx=0;exitDy=0;" parent="1" source="3PcHGjOzoDoNVJ23eMHd-132" target="3PcHGjOzoDoNVJ23eMHd-130" edge="1">
          <mxGeometry relative="1" as="geometry">
            <mxPoint x="130" y="1300" as="sourcePoint" />
            <mxPoint x="290" y="1300" as="targetPoint" />
          </mxGeometry>
        </mxCell>
        <mxCell id="3PcHGjOzoDoNVJ23eMHd-222" value="" style="endArrow=none;html=1;rounded=0;entryX=0;entryY=0.5;entryDx=0;entryDy=0;exitX=0.5;exitY=0;exitDx=0;exitDy=0;" parent="1" source="3PcHGjOzoDoNVJ23eMHd-131" target="3PcHGjOzoDoNVJ23eMHd-130" edge="1">
          <mxGeometry relative="1" as="geometry">
            <mxPoint x="-40" y="1230" as="sourcePoint" />
            <mxPoint x="120" y="1230" as="targetPoint" />
          </mxGeometry>
        </mxCell>
        <mxCell id="3PcHGjOzoDoNVJ23eMHd-223" value="" style="endArrow=none;html=1;rounded=0;entryX=0;entryY=1;entryDx=0;entryDy=0;exitX=1;exitY=0;exitDx=0;exitDy=0;" parent="1" source="3PcHGjOzoDoNVJ23eMHd-130" target="3PcHGjOzoDoNVJ23eMHd-15" edge="1">
          <mxGeometry relative="1" as="geometry">
            <mxPoint x="310" y="1140" as="sourcePoint" />
            <mxPoint x="470" y="1140" as="targetPoint" />
          </mxGeometry>
        </mxCell>
        <mxCell id="3PcHGjOzoDoNVJ23eMHd-224" value="" style="endArrow=none;html=1;rounded=0;entryX=0;entryY=0.75;entryDx=0;entryDy=0;exitX=1;exitY=0.5;exitDx=0;exitDy=0;" parent="1" source="3PcHGjOzoDoNVJ23eMHd-179" target="3PcHGjOzoDoNVJ23eMHd-15" edge="1">
          <mxGeometry relative="1" as="geometry">
            <mxPoint x="190" y="1080" as="sourcePoint" />
            <mxPoint x="350" y="1080" as="targetPoint" />
          </mxGeometry>
        </mxCell>
        <mxCell id="3PcHGjOzoDoNVJ23eMHd-225" value="" style="endArrow=none;html=1;rounded=0;entryX=0;entryY=1;entryDx=0;entryDy=0;exitX=0.5;exitY=0;exitDx=0;exitDy=0;" parent="1" source="3PcHGjOzoDoNVJ23eMHd-128" target="3PcHGjOzoDoNVJ23eMHd-14" edge="1">
          <mxGeometry relative="1" as="geometry">
            <mxPoint x="570" y="890" as="sourcePoint" />
            <mxPoint x="730" y="890" as="targetPoint" />
          </mxGeometry>
        </mxCell>
        <mxCell id="3PcHGjOzoDoNVJ23eMHd-226" value="" style="endArrow=none;html=1;rounded=0;entryX=0.25;entryY=1;entryDx=0;entryDy=0;exitX=0.5;exitY=0;exitDx=0;exitDy=0;" parent="1" source="3PcHGjOzoDoNVJ23eMHd-126" target="3PcHGjOzoDoNVJ23eMHd-14" edge="1">
          <mxGeometry relative="1" as="geometry">
            <mxPoint x="560" y="970" as="sourcePoint" />
            <mxPoint x="720" y="970" as="targetPoint" />
          </mxGeometry>
        </mxCell>
        <mxCell id="3PcHGjOzoDoNVJ23eMHd-227" value="" style="endArrow=none;html=1;rounded=0;entryX=0;entryY=0.5;entryDx=0;entryDy=0;exitX=0.5;exitY=1;exitDx=0;exitDy=0;" parent="1" source="3PcHGjOzoDoNVJ23eMHd-14" target="3PcHGjOzoDoNVJ23eMHd-124" edge="1">
          <mxGeometry relative="1" as="geometry">
            <mxPoint x="690" y="930" as="sourcePoint" />
            <mxPoint x="850" y="930" as="targetPoint" />
          </mxGeometry>
        </mxCell>
        <mxCell id="3PcHGjOzoDoNVJ23eMHd-228" value="" style="endArrow=none;html=1;rounded=0;entryX=0;entryY=0.5;entryDx=0;entryDy=0;exitX=0.75;exitY=1;exitDx=0;exitDy=0;" parent="1" source="3PcHGjOzoDoNVJ23eMHd-14" target="3PcHGjOzoDoNVJ23eMHd-174" edge="1">
          <mxGeometry relative="1" as="geometry">
            <mxPoint x="800" y="910" as="sourcePoint" />
            <mxPoint x="960" y="910" as="targetPoint" />
          </mxGeometry>
        </mxCell>
        <mxCell id="3PcHGjOzoDoNVJ23eMHd-229" value="" style="endArrow=none;html=1;rounded=0;entryX=0;entryY=0.5;entryDx=0;entryDy=0;exitX=1;exitY=0.75;exitDx=0;exitDy=0;" parent="1" source="3PcHGjOzoDoNVJ23eMHd-14" target="3PcHGjOzoDoNVJ23eMHd-122" edge="1">
          <mxGeometry relative="1" as="geometry">
            <mxPoint x="820" y="870" as="sourcePoint" />
            <mxPoint x="900" y="870" as="targetPoint" />
            <Array as="points" />
          </mxGeometry>
        </mxCell>
        <mxCell id="3PcHGjOzoDoNVJ23eMHd-230" value="" style="endArrow=none;html=1;rounded=0;entryX=0;entryY=0.5;entryDx=0;entryDy=0;exitX=1;exitY=0.5;exitDx=0;exitDy=0;" parent="1" source="3PcHGjOzoDoNVJ23eMHd-14" target="3PcHGjOzoDoNVJ23eMHd-120" edge="1">
          <mxGeometry relative="1" as="geometry">
            <mxPoint x="770" y="770" as="sourcePoint" />
            <mxPoint x="930" y="770" as="targetPoint" />
          </mxGeometry>
        </mxCell>
        <mxCell id="3PcHGjOzoDoNVJ23eMHd-232" value="" style="endArrow=none;html=1;rounded=0;entryX=0.25;entryY=1;entryDx=0;entryDy=0;exitX=0.5;exitY=0;exitDx=0;exitDy=0;" parent="1" source="3PcHGjOzoDoNVJ23eMHd-93" target="3PcHGjOzoDoNVJ23eMHd-12" edge="1">
          <mxGeometry relative="1" as="geometry">
            <mxPoint x="-160" y="990" as="sourcePoint" />
            <mxPoint y="990" as="targetPoint" />
          </mxGeometry>
        </mxCell>
        <mxCell id="3PcHGjOzoDoNVJ23eMHd-233" value="" style="endArrow=none;html=1;rounded=0;entryX=0.5;entryY=1;entryDx=0;entryDy=0;exitX=0.5;exitY=0;exitDx=0;exitDy=0;" parent="1" source="3PcHGjOzoDoNVJ23eMHd-95" target="3PcHGjOzoDoNVJ23eMHd-12" edge="1">
          <mxGeometry relative="1" as="geometry">
            <mxPoint x="-80" y="1010" as="sourcePoint" />
            <mxPoint x="80" y="1010" as="targetPoint" />
          </mxGeometry>
        </mxCell>
        <mxCell id="3PcHGjOzoDoNVJ23eMHd-234" value="" style="endArrow=none;html=1;rounded=0;exitX=1;exitY=1;exitDx=0;exitDy=0;entryX=0;entryY=0;entryDx=0;entryDy=0;" parent="1" source="3PcHGjOzoDoNVJ23eMHd-12" target="3PcHGjOzoDoNVJ23eMHd-98" edge="1">
          <mxGeometry relative="1" as="geometry">
            <mxPoint y="980" as="sourcePoint" />
            <mxPoint x="160" y="980" as="targetPoint" />
          </mxGeometry>
        </mxCell>
        <mxCell id="3PcHGjOzoDoNVJ23eMHd-237" value="" style="endArrow=none;html=1;rounded=0;entryX=0;entryY=0.5;entryDx=0;entryDy=0;exitX=1;exitY=1;exitDx=0;exitDy=0;" parent="1" source="3PcHGjOzoDoNVJ23eMHd-172" target="3PcHGjOzoDoNVJ23eMHd-12" edge="1">
          <mxGeometry relative="1" as="geometry">
            <mxPoint x="-190" y="940" as="sourcePoint" />
            <mxPoint x="-30" y="940" as="targetPoint" />
          </mxGeometry>
        </mxCell>
        <mxCell id="3PcHGjOzoDoNVJ23eMHd-238" value="" style="endArrow=none;html=1;rounded=0;entryX=0;entryY=0.5;entryDx=0;entryDy=0;exitX=1;exitY=0.5;exitDx=0;exitDy=0;" parent="1" source="3PcHGjOzoDoNVJ23eMHd-70" target="3PcHGjOzoDoNVJ23eMHd-9" edge="1">
          <mxGeometry relative="1" as="geometry">
            <mxPoint x="-60" y="650" as="sourcePoint" />
            <mxPoint x="100" y="650" as="targetPoint" />
          </mxGeometry>
        </mxCell>
        <mxCell id="3PcHGjOzoDoNVJ23eMHd-239" value="" style="endArrow=none;html=1;rounded=0;entryX=0.25;entryY=1;entryDx=0;entryDy=0;exitX=1;exitY=0;exitDx=0;exitDy=0;" parent="1" source="3PcHGjOzoDoNVJ23eMHd-73" target="3PcHGjOzoDoNVJ23eMHd-9" edge="1">
          <mxGeometry relative="1" as="geometry">
            <mxPoint x="-20" y="710" as="sourcePoint" />
            <mxPoint x="140" y="710" as="targetPoint" />
          </mxGeometry>
        </mxCell>
        <mxCell id="3PcHGjOzoDoNVJ23eMHd-240" value="" style="endArrow=none;html=1;rounded=0;entryX=0;entryY=1;entryDx=0;entryDy=0;exitX=1;exitY=0;exitDx=0;exitDy=0;" parent="1" source="3PcHGjOzoDoNVJ23eMHd-75" target="3PcHGjOzoDoNVJ23eMHd-9" edge="1">
          <mxGeometry relative="1" as="geometry">
            <mxPoint x="-30" y="750" as="sourcePoint" />
            <mxPoint x="130" y="750" as="targetPoint" />
          </mxGeometry>
        </mxCell>
        <mxCell id="3PcHGjOzoDoNVJ23eMHd-241" value="" style="endArrow=none;html=1;rounded=0;entryX=0.13;entryY=1.025;entryDx=0;entryDy=0;entryPerimeter=0;exitX=0.5;exitY=0;exitDx=0;exitDy=0;" parent="1" source="3PcHGjOzoDoNVJ23eMHd-77" target="3PcHGjOzoDoNVJ23eMHd-9" edge="1">
          <mxGeometry relative="1" as="geometry">
            <mxPoint x="80" y="710" as="sourcePoint" />
            <mxPoint x="150" y="700" as="targetPoint" />
          </mxGeometry>
        </mxCell>
        <mxCell id="3PcHGjOzoDoNVJ23eMHd-242" value="" style="endArrow=none;html=1;rounded=0;entryX=0.5;entryY=0;entryDx=0;entryDy=0;exitX=0.75;exitY=1;exitDx=0;exitDy=0;" parent="1" source="3PcHGjOzoDoNVJ23eMHd-9" target="3PcHGjOzoDoNVJ23eMHd-164" edge="1">
          <mxGeometry relative="1" as="geometry">
            <mxPoint x="140" y="700" as="sourcePoint" />
            <mxPoint x="300" y="700" as="targetPoint" />
          </mxGeometry>
        </mxCell>
        <mxCell id="3PcHGjOzoDoNVJ23eMHd-243" value="" style="endArrow=none;html=1;rounded=0;exitX=1;exitY=1;exitDx=0;exitDy=0;entryX=0;entryY=0;entryDx=0;entryDy=0;" parent="1" source="3PcHGjOzoDoNVJ23eMHd-9" target="3PcHGjOzoDoNVJ23eMHd-166" edge="1">
          <mxGeometry relative="1" as="geometry">
            <mxPoint x="150" y="670" as="sourcePoint" />
            <mxPoint x="254" y="680" as="targetPoint" />
          </mxGeometry>
        </mxCell>
        <mxCell id="3PcHGjOzoDoNVJ23eMHd-244" value="" style="endArrow=none;html=1;rounded=0;entryX=0;entryY=0.5;entryDx=0;entryDy=0;" parent="1" source="3PcHGjOzoDoNVJ23eMHd-81" target="3PcHGjOzoDoNVJ23eMHd-11" edge="1">
          <mxGeometry relative="1" as="geometry">
            <mxPoint x="580" y="590" as="sourcePoint" />
            <mxPoint x="740" y="590" as="targetPoint" />
          </mxGeometry>
        </mxCell>
        <mxCell id="3PcHGjOzoDoNVJ23eMHd-245" value="" style="endArrow=none;html=1;rounded=0;entryX=0;entryY=0.5;entryDx=0;entryDy=0;exitX=0.25;exitY=0;exitDx=0;exitDy=0;" parent="1" source="3PcHGjOzoDoNVJ23eMHd-11" target="3PcHGjOzoDoNVJ23eMHd-83" edge="1">
          <mxGeometry relative="1" as="geometry">
            <mxPoint x="820" y="440" as="sourcePoint" />
            <mxPoint x="980" y="440" as="targetPoint" />
          </mxGeometry>
        </mxCell>
        <mxCell id="3PcHGjOzoDoNVJ23eMHd-246" value="" style="endArrow=none;html=1;rounded=0;entryX=0;entryY=0.5;entryDx=0;entryDy=0;exitX=0.5;exitY=0;exitDx=0;exitDy=0;" parent="1" source="3PcHGjOzoDoNVJ23eMHd-11" target="3PcHGjOzoDoNVJ23eMHd-89" edge="1">
          <mxGeometry relative="1" as="geometry">
            <mxPoint x="850" y="560" as="sourcePoint" />
            <mxPoint x="1010" y="560" as="targetPoint" />
          </mxGeometry>
        </mxCell>
        <mxCell id="3PcHGjOzoDoNVJ23eMHd-247" value="" style="endArrow=none;html=1;rounded=0;entryX=0;entryY=0.5;entryDx=0;entryDy=0;exitX=1;exitY=0.5;exitDx=0;exitDy=0;" parent="1" source="3PcHGjOzoDoNVJ23eMHd-11" target="3PcHGjOzoDoNVJ23eMHd-170" edge="1">
          <mxGeometry relative="1" as="geometry">
            <mxPoint x="870" y="580" as="sourcePoint" />
            <mxPoint x="1030" y="580" as="targetPoint" />
          </mxGeometry>
        </mxCell>
        <mxCell id="3PcHGjOzoDoNVJ23eMHd-248" value="" style="endArrow=none;html=1;rounded=0;entryX=0;entryY=0.5;entryDx=0;entryDy=0;exitX=1;exitY=0;exitDx=0;exitDy=0;" parent="1" source="3PcHGjOzoDoNVJ23eMHd-11" target="3PcHGjOzoDoNVJ23eMHd-79" edge="1">
          <mxGeometry relative="1" as="geometry">
            <mxPoint x="1040" y="530" as="sourcePoint" />
            <mxPoint x="1200" y="530" as="targetPoint" />
          </mxGeometry>
        </mxCell>
        <mxCell id="3PcHGjOzoDoNVJ23eMHd-249" value="" style="endArrow=none;html=1;rounded=0;entryX=0;entryY=0.5;entryDx=0;entryDy=0;exitX=0.5;exitY=0;exitDx=0;exitDy=0;" parent="1" source="3PcHGjOzoDoNVJ23eMHd-83" target="3PcHGjOzoDoNVJ23eMHd-85" edge="1">
          <mxGeometry relative="1" as="geometry">
            <mxPoint x="960" y="390" as="sourcePoint" />
            <mxPoint x="1120" y="390" as="targetPoint" />
          </mxGeometry>
        </mxCell>
        <mxCell id="3PcHGjOzoDoNVJ23eMHd-250" value="" style="endArrow=none;html=1;rounded=0;entryX=0;entryY=0.5;entryDx=0;entryDy=0;exitX=1;exitY=0.5;exitDx=0;exitDy=0;" parent="1" source="3PcHGjOzoDoNVJ23eMHd-83" target="3PcHGjOzoDoNVJ23eMHd-86" edge="1">
          <mxGeometry relative="1" as="geometry">
            <mxPoint x="1110" y="450" as="sourcePoint" />
            <mxPoint x="1270" y="450" as="targetPoint" />
          </mxGeometry>
        </mxCell>
        <mxCell id="3PcHGjOzoDoNVJ23eMHd-253" value="" style="endArrow=none;html=1;rounded=0;entryX=0;entryY=0;entryDx=0;entryDy=0;exitX=1;exitY=0.5;exitDx=0;exitDy=0;" parent="1" source="3PcHGjOzoDoNVJ23eMHd-53" target="3PcHGjOzoDoNVJ23eMHd-10" edge="1">
          <mxGeometry relative="1" as="geometry">
            <mxPoint x="-110" y="330" as="sourcePoint" />
            <mxPoint x="50" y="330" as="targetPoint" />
          </mxGeometry>
        </mxCell>
        <mxCell id="3PcHGjOzoDoNVJ23eMHd-254" value="" style="endArrow=none;html=1;rounded=0;entryX=0.25;entryY=0;entryDx=0;entryDy=0;exitX=1;exitY=0.5;exitDx=0;exitDy=0;" parent="1" source="3PcHGjOzoDoNVJ23eMHd-50" target="3PcHGjOzoDoNVJ23eMHd-10" edge="1">
          <mxGeometry relative="1" as="geometry">
            <mxPoint x="-40" y="260" as="sourcePoint" />
            <mxPoint x="120" y="260" as="targetPoint" />
          </mxGeometry>
        </mxCell>
        <mxCell id="3PcHGjOzoDoNVJ23eMHd-255" value="" style="endArrow=none;html=1;rounded=0;entryX=0.5;entryY=0;entryDx=0;entryDy=0;exitX=1;exitY=0.5;exitDx=0;exitDy=0;" parent="1" source="3PcHGjOzoDoNVJ23eMHd-65" target="3PcHGjOzoDoNVJ23eMHd-10" edge="1">
          <mxGeometry relative="1" as="geometry">
            <mxPoint x="-80" y="190" as="sourcePoint" />
            <mxPoint x="80" y="190" as="targetPoint" />
          </mxGeometry>
        </mxCell>
        <mxCell id="3PcHGjOzoDoNVJ23eMHd-256" value="" style="endArrow=none;html=1;rounded=0;entryX=0;entryY=0.5;entryDx=0;entryDy=0;exitX=0.5;exitY=0;exitDx=0;exitDy=0;" parent="1" source="3PcHGjOzoDoNVJ23eMHd-10" target="3PcHGjOzoDoNVJ23eMHd-55" edge="1">
          <mxGeometry relative="1" as="geometry">
            <mxPoint x="40" y="180" as="sourcePoint" />
            <mxPoint x="200" y="180" as="targetPoint" />
          </mxGeometry>
        </mxCell>
        <mxCell id="3PcHGjOzoDoNVJ23eMHd-258" value="" style="endArrow=none;html=1;rounded=0;entryX=0;entryY=0.5;entryDx=0;entryDy=0;exitX=0.75;exitY=0;exitDx=0;exitDy=0;" parent="1" source="3PcHGjOzoDoNVJ23eMHd-10" target="3PcHGjOzoDoNVJ23eMHd-52" edge="1">
          <mxGeometry relative="1" as="geometry">
            <mxPoint x="120" y="240" as="sourcePoint" />
            <mxPoint x="280" y="240" as="targetPoint" />
          </mxGeometry>
        </mxCell>
        <mxCell id="3PcHGjOzoDoNVJ23eMHd-259" value="" style="endArrow=none;html=1;rounded=0;exitX=1;exitY=0;exitDx=0;exitDy=0;entryX=0;entryY=0.5;entryDx=0;entryDy=0;" parent="1" source="3PcHGjOzoDoNVJ23eMHd-10" target="3PcHGjOzoDoNVJ23eMHd-67" edge="1">
          <mxGeometry relative="1" as="geometry">
            <mxPoint x="170" y="300" as="sourcePoint" />
            <mxPoint x="330" y="300" as="targetPoint" />
          </mxGeometry>
        </mxCell>
        <mxCell id="3PcHGjOzoDoNVJ23eMHd-261" value="" style="endArrow=none;html=1;rounded=0;exitX=0.5;exitY=1;exitDx=0;exitDy=0;entryX=0.5;entryY=0;entryDx=0;entryDy=0;" parent="1" source="3PcHGjOzoDoNVJ23eMHd-46" target="3PcHGjOzoDoNVJ23eMHd-10" edge="1">
          <mxGeometry relative="1" as="geometry">
            <mxPoint x="80" y="220" as="sourcePoint" />
            <mxPoint x="240" y="220" as="targetPoint" />
          </mxGeometry>
        </mxCell>
        <mxCell id="3PcHGjOzoDoNVJ23eMHd-262" value="" style="endArrow=none;html=1;rounded=0;entryX=0;entryY=1;entryDx=0;entryDy=0;exitX=0.5;exitY=0;exitDx=0;exitDy=0;" parent="1" source="3PcHGjOzoDoNVJ23eMHd-55" target="3PcHGjOzoDoNVJ23eMHd-59" edge="1">
          <mxGeometry relative="1" as="geometry">
            <mxPoint x="200" y="90" as="sourcePoint" />
            <mxPoint x="360" y="90" as="targetPoint" />
          </mxGeometry>
        </mxCell>
        <mxCell id="3PcHGjOzoDoNVJ23eMHd-264" value="" style="endArrow=none;html=1;rounded=0;entryX=0;entryY=0.5;entryDx=0;entryDy=0;exitX=0.682;exitY=0.05;exitDx=0;exitDy=0;exitPerimeter=0;" parent="1" source="3PcHGjOzoDoNVJ23eMHd-55" target="3PcHGjOzoDoNVJ23eMHd-60" edge="1">
          <mxGeometry relative="1" as="geometry">
            <mxPoint x="280" y="120" as="sourcePoint" />
            <mxPoint x="440" y="120" as="targetPoint" />
          </mxGeometry>
        </mxCell>
        <mxCell id="3PcHGjOzoDoNVJ23eMHd-265" value="" style="endArrow=none;html=1;rounded=0;entryX=0;entryY=1;entryDx=0;entryDy=0;exitX=0.5;exitY=0;exitDx=0;exitDy=0;" parent="1" source="3PcHGjOzoDoNVJ23eMHd-55" target="3PcHGjOzoDoNVJ23eMHd-61" edge="1">
          <mxGeometry relative="1" as="geometry">
            <mxPoint x="210" y="80" as="sourcePoint" />
            <mxPoint x="370" y="80" as="targetPoint" />
          </mxGeometry>
        </mxCell>
        <mxCell id="3PcHGjOzoDoNVJ23eMHd-266" value="" style="endArrow=none;html=1;rounded=0;entryX=0.5;entryY=0;entryDx=0;entryDy=0;exitX=0.75;exitY=1;exitDx=0;exitDy=0;" parent="1" source="3PcHGjOzoDoNVJ23eMHd-10" target="3PcHGjOzoDoNVJ23eMHd-168" edge="1">
          <mxGeometry relative="1" as="geometry">
            <mxPoint x="-50" y="380" as="sourcePoint" />
            <mxPoint x="110" y="380" as="targetPoint" />
          </mxGeometry>
        </mxCell>
        <mxCell id="3PcHGjOzoDoNVJ23eMHd-267" value="" style="endArrow=none;html=1;rounded=0;entryX=0.5;entryY=1;entryDx=0;entryDy=0;exitX=0.5;exitY=0;exitDx=0;exitDy=0;" parent="1" source="3PcHGjOzoDoNVJ23eMHd-13" target="3PcHGjOzoDoNVJ23eMHd-114" edge="1">
          <mxGeometry relative="1" as="geometry">
            <mxPoint x="480" y="170" as="sourcePoint" />
            <mxPoint x="640" y="170" as="targetPoint" />
          </mxGeometry>
        </mxCell>
        <mxCell id="3PcHGjOzoDoNVJ23eMHd-268" value="" style="endArrow=none;html=1;rounded=0;entryX=0;entryY=0.5;entryDx=0;entryDy=0;exitX=0.75;exitY=0;exitDx=0;exitDy=0;" parent="1" source="3PcHGjOzoDoNVJ23eMHd-13" target="3PcHGjOzoDoNVJ23eMHd-101" edge="1">
          <mxGeometry relative="1" as="geometry">
            <mxPoint x="440" y="190" as="sourcePoint" />
            <mxPoint x="600" y="190" as="targetPoint" />
          </mxGeometry>
        </mxCell>
        <mxCell id="3PcHGjOzoDoNVJ23eMHd-269" value="" style="endArrow=none;html=1;rounded=0;entryX=0;entryY=1;entryDx=0;entryDy=0;" parent="1" target="3PcHGjOzoDoNVJ23eMHd-103" edge="1">
          <mxGeometry relative="1" as="geometry">
            <mxPoint x="660" y="250" as="sourcePoint" />
            <mxPoint x="820" y="250" as="targetPoint" />
          </mxGeometry>
        </mxCell>
        <mxCell id="3PcHGjOzoDoNVJ23eMHd-270" value="" style="endArrow=none;html=1;rounded=0;entryX=0;entryY=0.5;entryDx=0;entryDy=0;exitX=1;exitY=0.75;exitDx=0;exitDy=0;" parent="1" source="3PcHGjOzoDoNVJ23eMHd-13" target="3PcHGjOzoDoNVJ23eMHd-107" edge="1">
          <mxGeometry relative="1" as="geometry">
            <mxPoint x="660" y="270" as="sourcePoint" />
            <mxPoint x="820" y="270" as="targetPoint" />
          </mxGeometry>
        </mxCell>
        <mxCell id="3PcHGjOzoDoNVJ23eMHd-271" value="" style="endArrow=none;html=1;rounded=0;entryX=0;entryY=0.5;entryDx=0;entryDy=0;exitX=0.75;exitY=1;exitDx=0;exitDy=0;" parent="1" source="3PcHGjOzoDoNVJ23eMHd-13" target="3PcHGjOzoDoNVJ23eMHd-105" edge="1">
          <mxGeometry relative="1" as="geometry">
            <mxPoint x="650" y="290" as="sourcePoint" />
            <mxPoint x="810" y="290" as="targetPoint" />
          </mxGeometry>
        </mxCell>
        <mxCell id="3PcHGjOzoDoNVJ23eMHd-272" value="" style="endArrow=none;html=1;rounded=0;entryX=0;entryY=1;entryDx=0;entryDy=0;exitX=0.5;exitY=0;exitDx=0;exitDy=0;" parent="1" source="3PcHGjOzoDoNVJ23eMHd-114" target="3PcHGjOzoDoNVJ23eMHd-116" edge="1">
          <mxGeometry relative="1" as="geometry">
            <mxPoint x="500" y="60" as="sourcePoint" />
            <mxPoint x="660" y="60" as="targetPoint" />
          </mxGeometry>
        </mxCell>
        <mxCell id="3PcHGjOzoDoNVJ23eMHd-274" value="" style="endArrow=none;html=1;rounded=0;entryX=0;entryY=0.5;entryDx=0;entryDy=0;" parent="1" target="3PcHGjOzoDoNVJ23eMHd-117" edge="1">
          <mxGeometry relative="1" as="geometry">
            <mxPoint x="670" y="90" as="sourcePoint" />
            <mxPoint x="830" y="90" as="targetPoint" />
          </mxGeometry>
        </mxCell>
        <mxCell id="3PcHGjOzoDoNVJ23eMHd-275" value="" style="endArrow=none;html=1;rounded=0;entryX=0;entryY=0.5;entryDx=0;entryDy=0;exitX=1;exitY=1;exitDx=0;exitDy=0;" parent="1" source="3PcHGjOzoDoNVJ23eMHd-16" target="3PcHGjOzoDoNVJ23eMHd-160" edge="1">
          <mxGeometry relative="1" as="geometry">
            <mxPoint x="1070" y="180" as="sourcePoint" />
            <mxPoint x="1230" y="180" as="targetPoint" />
          </mxGeometry>
        </mxCell>
        <mxCell id="3PcHGjOzoDoNVJ23eMHd-277" value="" style="endArrow=none;html=1;rounded=0;entryX=0;entryY=0;entryDx=0;entryDy=0;exitX=1;exitY=1;exitDx=0;exitDy=0;" parent="1" source="3PcHGjOzoDoNVJ23eMHd-185" target="3PcHGjOzoDoNVJ23eMHd-16" edge="1">
          <mxGeometry relative="1" as="geometry">
            <mxPoint x="950" y="110" as="sourcePoint" />
            <mxPoint x="1110" y="110" as="targetPoint" />
          </mxGeometry>
        </mxCell>
        <mxCell id="3PcHGjOzoDoNVJ23eMHd-278" value="" style="endArrow=none;html=1;rounded=0;entryX=0.25;entryY=0;entryDx=0;entryDy=0;exitX=0.5;exitY=1;exitDx=0;exitDy=0;" parent="1" source="3PcHGjOzoDoNVJ23eMHd-162" target="3PcHGjOzoDoNVJ23eMHd-16" edge="1">
          <mxGeometry relative="1" as="geometry">
            <mxPoint x="1040" y="60" as="sourcePoint" />
            <mxPoint x="1200" y="60" as="targetPoint" />
          </mxGeometry>
        </mxCell>
        <mxCell id="3PcHGjOzoDoNVJ23eMHd-279" value="" style="endArrow=none;html=1;rounded=0;entryX=0;entryY=0.5;entryDx=0;entryDy=0;exitX=0.5;exitY=0;exitDx=0;exitDy=0;" parent="1" source="3PcHGjOzoDoNVJ23eMHd-16" target="3PcHGjOzoDoNVJ23eMHd-156" edge="1">
          <mxGeometry relative="1" as="geometry">
            <mxPoint x="1050" y="90" as="sourcePoint" />
            <mxPoint x="1210" y="90" as="targetPoint" />
          </mxGeometry>
        </mxCell>
        <mxCell id="3PcHGjOzoDoNVJ23eMHd-282" value="" style="endArrow=none;html=1;rounded=0;entryX=0.04;entryY=0.7;entryDx=0;entryDy=0;entryPerimeter=0;" parent="1" target="3PcHGjOzoDoNVJ23eMHd-158" edge="1">
          <mxGeometry relative="1" as="geometry">
            <mxPoint x="1150" y="110" as="sourcePoint" />
            <mxPoint x="1310" y="110" as="targetPoint" />
          </mxGeometry>
        </mxCell>
        <mxCell id="3PcHGjOzoDoNVJ23eMHd-283" value="" style="endArrow=none;html=1;rounded=0;entryX=0.5;entryY=0;entryDx=0;entryDy=0;exitX=0.75;exitY=1;exitDx=0;exitDy=0;" parent="1" source="3PcHGjOzoDoNVJ23eMHd-16" target="3PcHGjOzoDoNVJ23eMHd-183" edge="1">
          <mxGeometry relative="1" as="geometry">
            <mxPoint x="1060" y="190" as="sourcePoint" />
            <mxPoint x="1220" y="190" as="targetPoint" />
          </mxGeometry>
        </mxCell>
        <mxCell id="3PcHGjOzoDoNVJ23eMHd-284" value="" style="endArrow=none;html=1;rounded=0;entryX=0;entryY=0.5;entryDx=0;entryDy=0;" parent="1" target="3PcHGjOzoDoNVJ23eMHd-109" edge="1">
          <mxGeometry relative="1" as="geometry">
            <mxPoint x="900" y="250" as="sourcePoint" />
            <mxPoint x="1060" y="250" as="targetPoint" />
          </mxGeometry>
        </mxCell>
        <mxCell id="3PcHGjOzoDoNVJ23eMHd-285" value="" style="endArrow=none;html=1;rounded=0;entryX=0;entryY=0.5;entryDx=0;entryDy=0;" parent="1" target="3PcHGjOzoDoNVJ23eMHd-110" edge="1">
          <mxGeometry relative="1" as="geometry">
            <mxPoint x="960" y="280" as="sourcePoint" />
            <mxPoint x="1120" y="280" as="targetPoint" />
          </mxGeometry>
        </mxCell>
        <mxCell id="3PcHGjOzoDoNVJ23eMHd-287" value="" style="endArrow=none;html=1;rounded=0;entryX=0;entryY=1;entryDx=0;entryDy=0;exitX=1;exitY=0.5;exitDx=0;exitDy=0;shape=link;" parent="1" source="3PcHGjOzoDoNVJ23eMHd-17" target="3PcHGjOzoDoNVJ23eMHd-10" edge="1">
          <mxGeometry relative="1" as="geometry">
            <mxPoint x="-90" y="449.5" as="sourcePoint" />
            <mxPoint x="70" y="449.5" as="targetPoint" />
          </mxGeometry>
        </mxCell>
        <mxCell id="3PcHGjOzoDoNVJ23eMHd-288" value="(1,1)" style="edgeLabel;html=1;align=center;verticalAlign=middle;resizable=0;points=[];" parent="3PcHGjOzoDoNVJ23eMHd-287" vertex="1" connectable="0">
          <mxGeometry x="-0.3028" y="1" relative="1" as="geometry">
            <mxPoint x="1" as="offset" />
          </mxGeometry>
        </mxCell>
        <mxCell id="3PcHGjOzoDoNVJ23eMHd-290" value="" style="endArrow=none;html=1;rounded=0;entryX=0;entryY=0;entryDx=0;entryDy=0;exitX=1;exitY=0.5;exitDx=0;exitDy=0;" parent="1" source="3PcHGjOzoDoNVJ23eMHd-20" target="3PcHGjOzoDoNVJ23eMHd-14" edge="1">
          <mxGeometry relative="1" as="geometry">
            <mxPoint x="620" y="659" as="sourcePoint" />
            <mxPoint x="780" y="659" as="targetPoint" />
          </mxGeometry>
        </mxCell>
        <mxCell id="3PcHGjOzoDoNVJ23eMHd-292" value="(0,M)" style="edgeLabel;html=1;align=center;verticalAlign=middle;resizable=0;points=[];" parent="3PcHGjOzoDoNVJ23eMHd-290" vertex="1" connectable="0">
          <mxGeometry x="0.4636" y="3" relative="1" as="geometry">
            <mxPoint as="offset" />
          </mxGeometry>
        </mxCell>
        <mxCell id="3PcHGjOzoDoNVJ23eMHd-291" value="" style="endArrow=none;html=1;rounded=0;entryX=0;entryY=0.5;entryDx=0;entryDy=0;exitX=0.38;exitY=-0.025;exitDx=0;exitDy=0;exitPerimeter=0;" parent="1" source="3PcHGjOzoDoNVJ23eMHd-15" target="3PcHGjOzoDoNVJ23eMHd-20" edge="1">
          <mxGeometry relative="1" as="geometry">
            <mxPoint x="360" y="690" as="sourcePoint" />
            <mxPoint x="520" y="690" as="targetPoint" />
          </mxGeometry>
        </mxCell>
        <mxCell id="3PcHGjOzoDoNVJ23eMHd-293" value="(0,N)" style="edgeLabel;html=1;align=center;verticalAlign=middle;resizable=0;points=[];" parent="3PcHGjOzoDoNVJ23eMHd-291" vertex="1" connectable="0">
          <mxGeometry x="0.0306" y="-2" relative="1" as="geometry">
            <mxPoint as="offset" />
          </mxGeometry>
        </mxCell>
        <mxCell id="3PcHGjOzoDoNVJ23eMHd-294" value="" style="endArrow=none;html=1;rounded=0;entryX=0.5;entryY=0;entryDx=0;entryDy=0;exitX=0.5;exitY=1;exitDx=0;exitDy=0;shape=link;" parent="1" source="3PcHGjOzoDoNVJ23eMHd-9" target="3PcHGjOzoDoNVJ23eMHd-24" edge="1">
          <mxGeometry relative="1" as="geometry">
            <mxPoint x="130" y="720" as="sourcePoint" />
            <mxPoint x="290" y="720" as="targetPoint" />
          </mxGeometry>
        </mxCell>
        <mxCell id="3PcHGjOzoDoNVJ23eMHd-297" value="(1,N)" style="edgeLabel;html=1;align=center;verticalAlign=middle;resizable=0;points=[];" parent="3PcHGjOzoDoNVJ23eMHd-294" vertex="1" connectable="0">
          <mxGeometry x="0.0988" y="-2" relative="1" as="geometry">
            <mxPoint as="offset" />
          </mxGeometry>
        </mxCell>
        <mxCell id="3PcHGjOzoDoNVJ23eMHd-296" value="" style="endArrow=none;html=1;rounded=0;entryX=0.5;entryY=1;entryDx=0;entryDy=0;exitX=0.5;exitY=0;exitDx=0;exitDy=0;shape=link;" parent="1" source="3PcHGjOzoDoNVJ23eMHd-12" target="3PcHGjOzoDoNVJ23eMHd-24" edge="1">
          <mxGeometry relative="1" as="geometry">
            <mxPoint x="30" y="880" as="sourcePoint" />
            <mxPoint x="190" y="880" as="targetPoint" />
          </mxGeometry>
        </mxCell>
        <mxCell id="3PcHGjOzoDoNVJ23eMHd-298" value="(1,1)" style="edgeLabel;html=1;align=center;verticalAlign=middle;resizable=0;points=[];" parent="3PcHGjOzoDoNVJ23eMHd-296" vertex="1" connectable="0">
          <mxGeometry x="0.2989" y="-4" relative="1" as="geometry">
            <mxPoint as="offset" />
          </mxGeometry>
        </mxCell>
        <mxCell id="3PcHGjOzoDoNVJ23eMHd-300" value="" style="endArrow=none;html=1;rounded=0;entryX=0.5;entryY=0;entryDx=0;entryDy=0;exitX=0.5;exitY=1;exitDx=0;exitDy=0;shape=link;" parent="1" source="3PcHGjOzoDoNVJ23eMHd-27" target="3PcHGjOzoDoNVJ23eMHd-15" edge="1">
          <mxGeometry relative="1" as="geometry">
            <mxPoint x="350" y="680" as="sourcePoint" />
            <mxPoint x="510" y="680" as="targetPoint" />
          </mxGeometry>
        </mxCell>
        <mxCell id="3PcHGjOzoDoNVJ23eMHd-302" value="(2,2)" style="edgeLabel;html=1;align=center;verticalAlign=middle;resizable=0;points=[];" parent="3PcHGjOzoDoNVJ23eMHd-300" vertex="1" connectable="0">
          <mxGeometry x="-0.1238" y="-3" relative="1" as="geometry">
            <mxPoint as="offset" />
          </mxGeometry>
        </mxCell>
        <mxCell id="3PcHGjOzoDoNVJ23eMHd-301" value="" style="endArrow=none;html=1;rounded=0;entryX=0;entryY=0.5;entryDx=0;entryDy=0;exitX=1;exitY=0.5;exitDx=0;exitDy=0;shape=link;" parent="1" source="3PcHGjOzoDoNVJ23eMHd-9" edge="1">
          <mxGeometry relative="1" as="geometry">
            <mxPoint x="185" y="600" as="sourcePoint" />
            <mxPoint x="535" y="780" as="targetPoint" />
            <Array as="points">
              <mxPoint x="445" y="740" />
            </Array>
          </mxGeometry>
        </mxCell>
        <mxCell id="VuZMqgIghh9HuhSrdkCf-2" value="(1,1)" style="edgeLabel;html=1;align=center;verticalAlign=middle;resizable=0;points=[];" vertex="1" connectable="0" parent="3PcHGjOzoDoNVJ23eMHd-301">
          <mxGeometry x="0.0754" y="-1" relative="1" as="geometry">
            <mxPoint as="offset" />
          </mxGeometry>
        </mxCell>
        <mxCell id="3PcHGjOzoDoNVJ23eMHd-304" value="" style="endArrow=none;html=1;rounded=0;entryX=0.5;entryY=0;entryDx=0;entryDy=0;exitX=1;exitY=0.5;exitDx=0;exitDy=0;" parent="1" target="3PcHGjOzoDoNVJ23eMHd-14" edge="1">
          <mxGeometry relative="1" as="geometry">
            <mxPoint x="650" y="780" as="sourcePoint" />
            <mxPoint x="830" y="730" as="targetPoint" />
          </mxGeometry>
        </mxCell>
        <mxCell id="3PcHGjOzoDoNVJ23eMHd-306" value="(0,M)" style="edgeLabel;html=1;align=center;verticalAlign=middle;resizable=0;points=[];" parent="3PcHGjOzoDoNVJ23eMHd-304" vertex="1" connectable="0">
          <mxGeometry x="0.2792" y="-1" relative="1" as="geometry">
            <mxPoint as="offset" />
          </mxGeometry>
        </mxCell>
        <mxCell id="3PcHGjOzoDoNVJ23eMHd-305" value="" style="endArrow=none;html=1;rounded=0;entryX=0.5;entryY=1;entryDx=0;entryDy=0;exitX=1;exitY=0;exitDx=0;exitDy=0;shape=link;" parent="1" source="3PcHGjOzoDoNVJ23eMHd-15" edge="1">
          <mxGeometry relative="1" as="geometry">
            <mxPoint x="520" y="810" as="sourcePoint" />
            <mxPoint x="590" y="810" as="targetPoint" />
          </mxGeometry>
        </mxCell>
        <mxCell id="3PcHGjOzoDoNVJ23eMHd-307" value="(1,1)" style="edgeLabel;html=1;align=center;verticalAlign=middle;resizable=0;points=[];" parent="3PcHGjOzoDoNVJ23eMHd-305" vertex="1" connectable="0">
          <mxGeometry x="0.0894" relative="1" as="geometry">
            <mxPoint as="offset" />
          </mxGeometry>
        </mxCell>
        <mxCell id="3PcHGjOzoDoNVJ23eMHd-312" value="" style="endArrow=none;html=1;rounded=0;entryX=0;entryY=1;entryDx=0;entryDy=0;shape=link;" parent="1" target="3PcHGjOzoDoNVJ23eMHd-13" edge="1">
          <mxGeometry relative="1" as="geometry">
            <mxPoint x="440" y="400" as="sourcePoint" />
            <mxPoint x="600" y="400" as="targetPoint" />
          </mxGeometry>
        </mxCell>
        <mxCell id="3PcHGjOzoDoNVJ23eMHd-328" value="(1,N)" style="edgeLabel;html=1;align=center;verticalAlign=middle;resizable=0;points=[];" parent="3PcHGjOzoDoNVJ23eMHd-312" vertex="1" connectable="0">
          <mxGeometry x="-0.1201" relative="1" as="geometry">
            <mxPoint as="offset" />
          </mxGeometry>
        </mxCell>
        <mxCell id="3PcHGjOzoDoNVJ23eMHd-313" value="" style="endArrow=none;html=1;rounded=0;entryX=0;entryY=0.5;entryDx=0;entryDy=0;exitX=0.5;exitY=0;exitDx=0;exitDy=0;shape=link;" parent="1" source="3PcHGjOzoDoNVJ23eMHd-9" target="3PcHGjOzoDoNVJ23eMHd-30" edge="1">
          <mxGeometry relative="1" as="geometry">
            <mxPoint x="160" y="480" as="sourcePoint" />
            <mxPoint x="320" y="480" as="targetPoint" />
          </mxGeometry>
        </mxCell>
        <mxCell id="3PcHGjOzoDoNVJ23eMHd-329" value="(1,M)" style="edgeLabel;html=1;align=center;verticalAlign=middle;resizable=0;points=[];" parent="3PcHGjOzoDoNVJ23eMHd-313" vertex="1" connectable="0">
          <mxGeometry x="-0.205" y="1" relative="1" as="geometry">
            <mxPoint as="offset" />
          </mxGeometry>
        </mxCell>
        <mxCell id="3PcHGjOzoDoNVJ23eMHd-315" value="(2,2)" style="endArrow=none;html=1;rounded=0;entryX=0;entryY=0.5;entryDx=0;entryDy=0;exitX=1;exitY=0;exitDx=0;exitDy=0;shape=link;" parent="1" source="3PcHGjOzoDoNVJ23eMHd-9" target="3PcHGjOzoDoNVJ23eMHd-194" edge="1">
          <mxGeometry relative="1" as="geometry">
            <mxPoint x="480" y="510" as="sourcePoint" />
            <mxPoint x="640" y="510" as="targetPoint" />
          </mxGeometry>
        </mxCell>
        <mxCell id="3PcHGjOzoDoNVJ23eMHd-318" value="" style="endArrow=none;html=1;rounded=0;entryX=0.5;entryY=0;entryDx=0;entryDy=0;exitX=0.5;exitY=1;exitDx=0;exitDy=0;shape=link;" parent="1" source="3PcHGjOzoDoNVJ23eMHd-17" target="3PcHGjOzoDoNVJ23eMHd-9" edge="1">
          <mxGeometry relative="1" as="geometry">
            <mxPoint x="-100" y="530" as="sourcePoint" />
            <mxPoint x="60" y="530" as="targetPoint" />
          </mxGeometry>
        </mxCell>
        <mxCell id="3PcHGjOzoDoNVJ23eMHd-327" value="(11,30)" style="edgeLabel;html=1;align=center;verticalAlign=middle;resizable=0;points=[];" parent="3PcHGjOzoDoNVJ23eMHd-318" vertex="1" connectable="0">
          <mxGeometry x="-0.2271" y="-1" relative="1" as="geometry">
            <mxPoint as="offset" />
          </mxGeometry>
        </mxCell>
        <mxCell id="3PcHGjOzoDoNVJ23eMHd-322" value="(1,N)" style="endArrow=none;html=1;rounded=0;entryX=0.5;entryY=1;entryDx=0;entryDy=0;exitX=0.5;exitY=0;exitDx=0;exitDy=0;shape=link;" parent="1" source="3PcHGjOzoDoNVJ23eMHd-194" target="3PcHGjOzoDoNVJ23eMHd-13" edge="1">
          <mxGeometry relative="1" as="geometry">
            <mxPoint x="570" y="330" as="sourcePoint" />
            <mxPoint x="730" y="330" as="targetPoint" />
          </mxGeometry>
        </mxCell>
        <mxCell id="3PcHGjOzoDoNVJ23eMHd-323" value="" style="endArrow=none;html=1;rounded=0;exitX=1;exitY=0.5;exitDx=0;exitDy=0;entryX=0;entryY=0.5;entryDx=0;entryDy=0;shape=link;" parent="1" source="3PcHGjOzoDoNVJ23eMHd-10" target="3PcHGjOzoDoNVJ23eMHd-33" edge="1">
          <mxGeometry relative="1" as="geometry">
            <mxPoint x="170" y="350" as="sourcePoint" />
            <mxPoint x="330" y="350" as="targetPoint" />
          </mxGeometry>
        </mxCell>
        <mxCell id="3PcHGjOzoDoNVJ23eMHd-331" value="(1,1)" style="edgeLabel;html=1;align=center;verticalAlign=middle;resizable=0;points=[];" parent="3PcHGjOzoDoNVJ23eMHd-323" vertex="1" connectable="0">
          <mxGeometry x="-0.0079" y="-1" relative="1" as="geometry">
            <mxPoint as="offset" />
          </mxGeometry>
        </mxCell>
        <mxCell id="3PcHGjOzoDoNVJ23eMHd-324" value="" style="endArrow=none;html=1;rounded=0;entryX=0;entryY=0.5;entryDx=0;entryDy=0;exitX=1;exitY=0.5;exitDx=0;exitDy=0;shape=link;" parent="1" source="3PcHGjOzoDoNVJ23eMHd-33" target="3PcHGjOzoDoNVJ23eMHd-16" edge="1">
          <mxGeometry relative="1" as="geometry">
            <mxPoint x="880" y="130" as="sourcePoint" />
            <mxPoint x="1040" y="130" as="targetPoint" />
          </mxGeometry>
        </mxCell>
        <mxCell id="3PcHGjOzoDoNVJ23eMHd-330" value="(1,1)" style="edgeLabel;html=1;align=center;verticalAlign=middle;resizable=0;points=[];" parent="3PcHGjOzoDoNVJ23eMHd-324" vertex="1" connectable="0">
          <mxGeometry x="-0.25" y="2" relative="1" as="geometry">
            <mxPoint as="offset" />
          </mxGeometry>
        </mxCell>
        <mxCell id="3PcHGjOzoDoNVJ23eMHd-332" value="" style="endArrow=none;html=1;rounded=0;entryX=0.25;entryY=0;entryDx=0;entryDy=0;exitX=0;exitY=0.5;exitDx=0;exitDy=0;shape=link;" parent="1" source="3PcHGjOzoDoNVJ23eMHd-40" target="3PcHGjOzoDoNVJ23eMHd-10" edge="1">
          <mxGeometry relative="1" as="geometry">
            <mxPoint x="-80" y="90" as="sourcePoint" />
            <mxPoint x="80" y="90" as="targetPoint" />
          </mxGeometry>
        </mxCell>
        <mxCell id="3PcHGjOzoDoNVJ23eMHd-334" value="(10,29)" style="edgeLabel;html=1;align=center;verticalAlign=middle;resizable=0;points=[];" parent="3PcHGjOzoDoNVJ23eMHd-332" vertex="1" connectable="0">
          <mxGeometry x="-0.2977" y="-1" relative="1" as="geometry">
            <mxPoint as="offset" />
          </mxGeometry>
        </mxCell>
        <mxCell id="3PcHGjOzoDoNVJ23eMHd-333" value="" style="endArrow=none;html=1;rounded=0;exitX=1;exitY=0.5;exitDx=0;exitDy=0;entryX=0.75;entryY=0;entryDx=0;entryDy=0;shape=link;" parent="1" source="3PcHGjOzoDoNVJ23eMHd-40" target="3PcHGjOzoDoNVJ23eMHd-10" edge="1">
          <mxGeometry relative="1" as="geometry">
            <mxPoint x="120" y="90" as="sourcePoint" />
            <mxPoint x="280" y="90" as="targetPoint" />
          </mxGeometry>
        </mxCell>
        <mxCell id="3PcHGjOzoDoNVJ23eMHd-335" value="(1,1)" style="edgeLabel;html=1;align=center;verticalAlign=middle;resizable=0;points=[];" parent="3PcHGjOzoDoNVJ23eMHd-333" vertex="1" connectable="0">
          <mxGeometry x="-0.2819" y="-3" relative="1" as="geometry">
            <mxPoint as="offset" />
          </mxGeometry>
        </mxCell>
        <mxCell id="VuZMqgIghh9HuhSrdkCf-3" value="" style="shape=link;html=1;rounded=0;entryX=0;entryY=1;entryDx=0;entryDy=0;exitX=0.5;exitY=0;exitDx=0;exitDy=0;" edge="1" parent="1" target="3PcHGjOzoDoNVJ23eMHd-11">
          <mxGeometry relative="1" as="geometry">
            <mxPoint x="590" y="750" as="sourcePoint" />
            <mxPoint x="670" y="740" as="targetPoint" />
          </mxGeometry>
        </mxCell>
        <mxCell id="VuZMqgIghh9HuhSrdkCf-4" value="" style="resizable=0;html=1;whiteSpace=wrap;align=left;verticalAlign=bottom;" connectable="0" vertex="1" parent="VuZMqgIghh9HuhSrdkCf-3">
          <mxGeometry x="-1" relative="1" as="geometry" />
        </mxCell>
        <mxCell id="VuZMqgIghh9HuhSrdkCf-5" value="" style="resizable=0;html=1;whiteSpace=wrap;align=right;verticalAlign=bottom;" connectable="0" vertex="1" parent="VuZMqgIghh9HuhSrdkCf-3">
          <mxGeometry x="1" relative="1" as="geometry" />
        </mxCell>
        <mxCell id="VuZMqgIghh9HuhSrdkCf-9" value="(1,1)" style="edgeLabel;html=1;align=center;verticalAlign=middle;resizable=0;points=[];" vertex="1" connectable="0" parent="VuZMqgIghh9HuhSrdkCf-3">
          <mxGeometry x="0.1963" y="-3" relative="1" as="geometry">
            <mxPoint x="1" as="offset" />
          </mxGeometry>
        </mxCell>
        <mxCell id="VuZMqgIghh9HuhSrdkCf-10" value="ASSISTING" style="shape=rhombus;perimeter=rhombusPerimeter;whiteSpace=wrap;html=1;align=center;fillColor=#6a00ff;strokeColor=#3700CC;fillStyle=solid;fontColor=#ffffff;" vertex="1" parent="1">
          <mxGeometry x="530" y="750" width="120" height="60" as="geometry" />
        </mxCell>
        <mxCell id="VuZMqgIghh9HuhSrdkCf-11" value="" style="shape=link;html=1;rounded=0;entryX=0;entryY=0.5;entryDx=0;entryDy=0;entryPerimeter=0;exitX=1;exitY=0.75;exitDx=0;exitDy=0;" edge="1" parent="1" source="3PcHGjOzoDoNVJ23eMHd-9" target="3PcHGjOzoDoNVJ23eMHd-27">
          <mxGeometry relative="1" as="geometry">
            <mxPoint x="180" y="619.5" as="sourcePoint" />
            <mxPoint x="340" y="619.5" as="targetPoint" />
          </mxGeometry>
        </mxCell>
        <mxCell id="VuZMqgIghh9HuhSrdkCf-12" value="" style="resizable=0;html=1;whiteSpace=wrap;align=left;verticalAlign=bottom;" connectable="0" vertex="1" parent="VuZMqgIghh9HuhSrdkCf-11">
          <mxGeometry x="-1" relative="1" as="geometry" />
        </mxCell>
        <mxCell id="VuZMqgIghh9HuhSrdkCf-13" value="" style="resizable=0;html=1;whiteSpace=wrap;align=right;verticalAlign=bottom;" connectable="0" vertex="1" parent="VuZMqgIghh9HuhSrdkCf-11">
          <mxGeometry x="1" relative="1" as="geometry" />
        </mxCell>
        <mxCell id="VuZMqgIghh9HuhSrdkCf-15" value="(2,2)" style="edgeLabel;html=1;align=center;verticalAlign=middle;resizable=0;points=[];" vertex="1" connectable="0" parent="VuZMqgIghh9HuhSrdkCf-11">
          <mxGeometry x="0.5423" y="2" relative="1" as="geometry">
            <mxPoint as="offset" />
          </mxGeometry>
        </mxCell>
        <mxCell id="VuZMqgIghh9HuhSrdkCf-16" value="" style="shape=link;html=1;rounded=0;entryX=0.144;entryY=-0.015;entryDx=0;entryDy=0;entryPerimeter=0;" edge="1" parent="1" target="3PcHGjOzoDoNVJ23eMHd-15">
          <mxGeometry relative="1" as="geometry">
            <mxPoint x="450" y="530" as="sourcePoint" />
            <mxPoint x="640" y="730" as="targetPoint" />
          </mxGeometry>
        </mxCell>
        <mxCell id="VuZMqgIghh9HuhSrdkCf-17" value="" style="resizable=0;html=1;whiteSpace=wrap;align=left;verticalAlign=bottom;" connectable="0" vertex="1" parent="VuZMqgIghh9HuhSrdkCf-16">
          <mxGeometry x="-1" relative="1" as="geometry" />
        </mxCell>
        <mxCell id="VuZMqgIghh9HuhSrdkCf-18" value="" style="resizable=0;html=1;whiteSpace=wrap;align=right;verticalAlign=bottom;" connectable="0" vertex="1" parent="VuZMqgIghh9HuhSrdkCf-16">
          <mxGeometry x="1" relative="1" as="geometry" />
        </mxCell>
        <mxCell id="VuZMqgIghh9HuhSrdkCf-19" value="(1,1)" style="edgeLabel;html=1;align=center;verticalAlign=middle;resizable=0;points=[];" vertex="1" connectable="0" parent="VuZMqgIghh9HuhSrdkCf-16">
          <mxGeometry x="-0.4679" relative="1" as="geometry">
            <mxPoint as="offset" />
          </mxGeometry>
        </mxCell>
        <mxCell id="VuZMqgIghh9HuhSrdkCf-20" value="" style="shape=link;html=1;rounded=0;exitX=1;exitY=0.5;exitDx=0;exitDy=0;entryX=0;entryY=0;entryDx=0;entryDy=0;" edge="1" parent="1" source="3PcHGjOzoDoNVJ23eMHd-194" target="3PcHGjOzoDoNVJ23eMHd-11">
          <mxGeometry relative="1" as="geometry">
            <mxPoint x="480" y="730" as="sourcePoint" />
            <mxPoint x="640" y="730" as="targetPoint" />
          </mxGeometry>
        </mxCell>
        <mxCell id="VuZMqgIghh9HuhSrdkCf-21" value="" style="resizable=0;html=1;whiteSpace=wrap;align=left;verticalAlign=bottom;" connectable="0" vertex="1" parent="VuZMqgIghh9HuhSrdkCf-20">
          <mxGeometry x="-1" relative="1" as="geometry" />
        </mxCell>
        <mxCell id="VuZMqgIghh9HuhSrdkCf-22" value="" style="resizable=0;html=1;whiteSpace=wrap;align=right;verticalAlign=bottom;" connectable="0" vertex="1" parent="VuZMqgIghh9HuhSrdkCf-20">
          <mxGeometry x="1" relative="1" as="geometry" />
        </mxCell>
        <mxCell id="VuZMqgIghh9HuhSrdkCf-23" value="(1,1)" style="edgeLabel;html=1;align=center;verticalAlign=middle;resizable=0;points=[];" vertex="1" connectable="0" parent="VuZMqgIghh9HuhSrdkCf-20">
          <mxGeometry x="-0.1424" y="2" relative="1" as="geometry">
            <mxPoint as="offset" />
          </mxGeometry>
        </mxCell>
      </root>
    </mxGraphModel>
  </diagram>
</mxfile>
